<?xml version="1.0" encoding="UTF-8" standalone="no"?>
<svg
   xmlns:dc="http://purl.org/dc/elements/1.1/"
   xmlns:cc="http://creativecommons.org/ns#"
   xmlns:rdf="http://www.w3.org/1999/02/22-rdf-syntax-ns#"
   xmlns:svg="http://www.w3.org/2000/svg"
   xmlns="http://www.w3.org/2000/svg"
   xmlns:xlink="http://www.w3.org/1999/xlink"
   data-name="Layer 1"
   viewBox="0 0 311.26 254.08"
   version="1.1"
   id="svg1053"
   width="311.26001"
   height="254.08">
  <metadata
     id="metadata1057">
    <rdf:RDF>
      <cc:Work
         rdf:about="">
        <dc:format>image/svg+xml</dc:format>
        <dc:type
           rdf:resource="http://purl.org/dc/dcmitype/StillImage" />
        <dc:title></dc:title>
      </cc:Work>
    </rdf:RDF>
  </metadata>
  <defs
     id="defs977">
    <linearGradient
       id="a"
       x1="-344.22"
       y1="-1588.97"
       x2="-344.22"
       y2="-1589.95"
       gradientTransform="matrix(15.24,0,0,-28.31,5283.74,-44852.7)"
       gradientUnits="userSpaceOnUse">
      <stop
         offset="0"
         stop-color="#d4af37"
         id="stop946" />
      <stop
         offset="1"
         stop-color="#d4af37"
         id="stop948" />
      <stop
         offset="1"
         stop-color="#f50"
         id="stop950" />
    </linearGradient>
    <linearGradient
       id="b"
       x1="-343.72"
       y1="-1588.71"
       x2="-343.72"
       y2="-1589.6801"
       gradientTransform="matrix(14.8,0,0,-28.41,5152.99,-44997.89)"
       xlink:href="#a" />
    <linearGradient
       id="c"
       x1="-343.78"
       y1="-1588.71"
       x2="-343.78"
       y2="-1589.6801"
       gradientTransform="matrix(14.8,0,0,-28.41,5188.18,-44997.89)"
       xlink:href="#a" />
    <linearGradient
       id="d"
       x1="-302.54999"
       y1="-1666.75"
       x2="-302.54999"
       y2="-1667.73"
       gradientTransform="matrix(4.61,0,0,-14.22,1421.2,-23554.43)"
       xlink:href="#a" />
    <linearGradient
       id="e"
       x1="-276.44"
       y1="-1649.25"
       x2="-276.44"
       y2="-1650.22"
       gradientTransform="matrix(3.2,0,0,-16.01,931.36,-26263.78)"
       xlink:href="#a" />
    <linearGradient
       id="f"
       x1="-276.47"
       y1="-1649.25"
       x2="-276.47"
       y2="-1650.22"
       gradientTransform="matrix(3.2,0,0,-16.01,935.33,-26263.78)"
       xlink:href="#a" />
    <linearGradient
       id="g"
       x1="-276.5"
       y1="-1649.25"
       x2="-276.5"
       y2="-1650.22"
       gradientTransform="matrix(3.2,0,0,-16.01,939.27,-26263.78)"
       xlink:href="#a" />
    <linearGradient
       id="h"
       x1="-276.53"
       y1="-1649.25"
       x2="-276.53"
       y2="-1650.22"
       gradientTransform="matrix(3.2,0,0,-16.01,943.21,-26263.78)"
       xlink:href="#a" />
    <linearGradient
       id="i"
       x1="-276.67999"
       y1="-1649.25"
       x2="-276.67999"
       y2="-1650.22"
       gradientTransform="matrix(3.2,0,0,-16.01,962.61,-26263.78)"
       xlink:href="#a" />
    <linearGradient
       id="j"
       x1="-276.70999"
       y1="-1649.25"
       x2="-276.70999"
       y2="-1650.22"
       gradientTransform="matrix(3.2,0,0,-16.01,966.55,-26263.78)"
       xlink:href="#a" />
    <linearGradient
       id="k"
       x1="-276.73999"
       y1="-1649.25"
       x2="-276.73999"
       y2="-1650.22"
       gradientTransform="matrix(3.2,0,0,-16.01,970.49,-26263.78)"
       xlink:href="#a" />
    <linearGradient
       id="l"
       x1="-276.76999"
       y1="-1649.25"
       x2="-276.76999"
       y2="-1650.22"
       gradientTransform="matrix(3.2,0,0,-16.01,974.46,-26263.78)"
       xlink:href="#a" />
    <linearGradient
       id="m"
       x1="-276.79999"
       y1="-1649.25"
       x2="-276.79999"
       y2="-1650.22"
       gradientTransform="matrix(3.2,0,0,-16.01,978.4,-26263.78)"
       xlink:href="#a" />
    <linearGradient
       id="n"
       x1="-276.95001"
       y1="-1649.25"
       x2="-276.95001"
       y2="-1650.22"
       gradientTransform="matrix(3.2,0,0,-16.01,998.13,-26263.78)"
       xlink:href="#a" />
    <linearGradient
       id="o"
       x1="-276.98001"
       y1="-1649.25"
       x2="-276.98001"
       y2="-1650.22"
       gradientTransform="matrix(3.2,0,0,-16.01,1002.07,-26263.78)"
       xlink:href="#a" />
    <linearGradient
       id="p"
       x1="-277.01001"
       y1="-1649.25"
       x2="-277.01001"
       y2="-1650.22"
       gradientTransform="matrix(3.2,0,0,-16.01,1006.01,-26263.78)"
       xlink:href="#a" />
    <linearGradient
       id="q"
       x1="-277.04001"
       y1="-1649.25"
       x2="-277.04001"
       y2="-1650.22"
       gradientTransform="matrix(3.2,0,0,-16.01,1009.95,-26263.78)"
       xlink:href="#a" />
    <linearGradient
       id="r"
       x1="-277.07001"
       y1="-1649.25"
       x2="-277.07001"
       y2="-1650.22"
       gradientTransform="matrix(3.2,0,0,-16.01,1013.92,-26263.78)"
       xlink:href="#a" />
    <linearGradient
       id="s"
       x1="-277.22"
       y1="-1649.25"
       x2="-277.22"
       y2="-1650.22"
       gradientTransform="matrix(3.2,0,0,-16.01,1033.33,-26263.78)"
       xlink:href="#a" />
    <linearGradient
       id="t"
       x1="-277.25"
       y1="-1649.25"
       x2="-277.25"
       y2="-1650.22"
       gradientTransform="matrix(3.2,0,0,-16.01,1037.27,-26263.78)"
       xlink:href="#a" />
    <linearGradient
       id="u"
       x1="-277.28"
       y1="-1649.25"
       x2="-277.28"
       y2="-1650.22"
       gradientTransform="matrix(3.2,0,0,-16.01,1041.21,-26263.78)"
       xlink:href="#a" />
    <linearGradient
       id="v"
       x1="-277.32001"
       y1="-1649.25"
       x2="-277.32001"
       y2="-1650.22"
       gradientTransform="matrix(3.2,0,0,-16.01,1045.15,-26263.78)"
       xlink:href="#a" />
    <linearGradient
       id="w"
       x1="-303.38"
       y1="-1667.11"
       x2="-303.38"
       y2="-1668.08"
       gradientTransform="matrix(4.61,0,0,-14.19,1576.08,-23506.05)"
       xlink:href="#a" />
    <linearGradient
       id="x"
       x1="-343.84"
       y1="-1588.71"
       x2="-343.84"
       y2="-1589.6801"
       gradientTransform="matrix(14.8,0,0,-28.41,5223.7,-44997.89)"
       xlink:href="#a" />
    <linearGradient
       id="y"
       x1="-344.28"
       y1="-1588.97"
       x2="-344.28"
       y2="-1589.95"
       gradientTransform="matrix(15.12,0,0,-28.31,5371.14,-44852.66)"
       xlink:href="#a" />
  </defs>
  <path
     d="M 291.26,0 H 20 A 20,20 0 0 0 0,20 v 213.74 a 20,20 0 0 0 20,20 h 271.26 a 20,20 0 0 0 20,-20 V 19.92 A 20,20 0 0 0 291.26,0 Z M 9,129.12 a 3,3 0 1 1 3,-3 2.92,2.92 0 0 1 -3,3 z m 16.4,96.34 a 12,12 0 1 1 12,-12 12,12 0 0 1 -12,12 z m 61.5,0 a 12,12 0 1 1 12,-12 12,12 0 0 1 -12.04,12 z m 68.98,0 a 12,12 0 1 1 12,-12 12,12 0 0 1 -12,12 z m 69.28,0 a 12,12 0 1 1 12,-12 12,12 0 0 1 -12,12 z m 60.92,0 a 12,12 0 1 1 12,-12 12,12 0 0 1 -12,12 z m 17.74,-96.34 a 3,3 0 0 1 -3,-3 c 0,-1.7 0.12,-3 3,-3 a 3,3 0 0 1 0,6 z"
     fill="#161616"
     id="path981"
     style="stroke-width:0.5" />
  <path
     fill="#3adcfe"
     d="M 71.92,35.42 108.22,0 H 71.92 Z M 71.42,0 H 16.26 C 7.62,1.3 0.06,8.3 0.06,17.3 v 52.44 z"
     id="path983"
     style="stroke-width:0.5" />
  <path
     fill="#3adcfe"
     d="M 108.14,17.42 126.58,0 h -18.44 z m -74.28,134 v 19.82 h -19.8 z m 244.98,-48.6 V 82.96 h 19.8 z"
     id="path985"
     style="stroke-width:0.5" />
  <path
     d="m 212.48,180.54 h 3.76 a 1.2,1.2 0 0 1 0.88,0.36 1.26,1.26 0 0 1 0.36,0.9 v 10 a 1.26,1.26 0 0 1 -0.36,0.9 1.2,1.2 0 0 1 -0.88,0.36 h -3.76 a 1.2,1.2 0 0 1 -0.88,-0.36 1.26,1.26 0 0 1 -0.36,-0.9 v -10 a 1.26,1.26 0 0 1 0.36,-0.9 1.2,1.2 0 0 1 0.88,-0.36 z"
     id="path1107"
     style="fill:#ffffff;stroke-width:1" />
  <path
     d="m 183.74,180.54 h 3.76 a 1.2,1.2 0 0 1 0.88,0.36 1.26,1.26 0 0 1 0.36,0.9 v 10 a 1.26,1.26 0 0 1 -0.36,0.9 1.2,1.2 0 0 1 -0.88,0.36 h -3.76 a 1.2,1.2 0 0 1 -0.88,-0.36 1.26,1.26 0 0 1 -0.36,-0.9 v -10 a 1.26,1.26 0 0 1 0.36,-0.9 1.2,1.2 0 0 1 0.88,-0.36 z"
     id="path1105"
     style="fill:#ffffff;stroke-width:1" />
  <path
     d="m 155,180.54 h 3.86 a 1.2,1.2 0 0 1 0.88,0.36 1.26,1.26 0 0 1 0.36,0.9 v 10 a 1.26,1.26 0 0 1 -0.36,0.9 1.2,1.2 0 0 1 -0.88,0.36 h -3.76 a 1.2,1.2 0 0 1 -0.88,-0.36 1.26,1.26 0 0 1 -0.36,-0.9 v -10 a 1.26,1.26 0 0 1 0.36,-0.9 1.2,1.2 0 0 1 0.78,-0.36 z"
     id="path1103"
     style="fill:#ffffff;stroke-width:1" />
  <path
     d="m 126.26,180.54 h 3.76 a 1.2,1.2 0 0 1 0.88,0.36 1.26,1.26 0 0 1 0.36,0.9 v 10 a 1.26,1.26 0 0 1 -0.36,0.9 1.2,1.2 0 0 1 -0.88,0.36 h -3.76 a 1.2,1.2 0 0 1 -0.88,-0.36 1.26,1.26 0 0 1 -0.36,-0.9 v -10 a 1.26,1.26 0 0 1 0.36,-0.9 1.2,1.2 0 0 1 0.88,-0.36 z"
     id="path1101"
     style="fill:#ffffff;stroke-width:1" />
  <path
     d="m 97.52,180.54 h 3.76 a 1.2,1.2 0 0 1 0.88,0.36 1.26,1.26 0 0 1 0.36,0.9 v 10 a 1.26,1.26 0 0 1 -0.36,0.9 1.2,1.2 0 0 1 -0.88,0.36 h -3.76 a 1.24,1.24 0 0 1 -0.88,-0.36 1.26,1.26 0 0 1 -0.36,-0.9 v -10 a 1.26,1.26 0 0 1 0.36,-0.9 1.24,1.24 0 0 1 0.88,-0.36 z"
     id="path1099"
     style="fill:#ffffff;stroke-width:1" />
  <path
     d="m 212.48,153.06 h 3.76 a 1.22,1.22 0 0 1 1.24,1.24 v 10 a 1.22,1.22 0 0 1 -1.24,1.24 h -3.76 a 1.22,1.22 0 0 1 -1.24,-1.24 v -10 a 1.22,1.22 0 0 1 1.24,-1.24 z"
     id="path1097"
     style="fill:#ffffff;stroke-width:1" />
  <path
     d="m 183.74,153.06 h 3.76 a 1.22,1.22 0 0 1 1.24,1.24 v 10 a 1.22,1.22 0 0 1 -1.24,1.24 h -3.76 a 1.22,1.22 0 0 1 -1.24,-1.24 v -10 a 1.22,1.22 0 0 1 1.24,-1.24 z"
     id="path1095"
     style="fill:#ffffff;stroke-width:1" />
  <path
     d="m 155,153.06 h 3.86 a 1.22,1.22 0 0 1 1.24,1.24 v 10 a 1.22,1.22 0 0 1 -1.24,1.24 h -3.76 a 1.22,1.22 0 0 1 -1.24,-1.24 v -10 a 1.22,1.22 0 0 1 1.24,-1.24 z"
     id="path1093"
     style="fill:#ffffff;stroke-width:1" />
  <path
     d="m 126.26,153.06 h 3.76 a 1.22,1.22 0 0 1 1.24,1.24 v 10 a 1.22,1.22 0 0 1 -1.24,1.24 h -3.76 a 1.22,1.22 0 0 1 -1.24,-1.24 v -10 a 1.22,1.22 0 0 1 1.24,-1.24 z"
     id="path1091"
     style="fill:#ffffff;stroke-width:1" />
  <path
     d="m 97.52,153.06 h 3.76 a 1.22,1.22 0 0 1 1.24,1.24 v 10 a 1.22,1.22 0 0 1 -1.24,1.24 h -3.76 a 1.24,1.24 0 0 1 -0.88,-0.36 1.2,1.2 0 0 1 -0.36,-0.88 v -10 a 1.2,1.2 0 0 1 0.36,-0.88 1.24,1.24 0 0 1 0.88,-0.36 z"
     id="path1089"
     style="fill:#ffffff;stroke-width:1" />
  <path
     d="m 212.48,125.56 h 3.76 a 1.16,1.16 0 0 1 0.88,0.38 1.18,1.18 0 0 1 0.36,0.88 v 10 a 1.22,1.22 0 0 1 -1.24,1.24 h -3.76 a 1.22,1.22 0 0 1 -1.24,-1.24 v -10 a 1.18,1.18 0 0 1 0.36,-0.88 1.16,1.16 0 0 1 0.88,-0.38 z"
     id="path1087"
     style="fill:#ffffff;stroke-width:1" />
  <path
     d="m 183.74,125.56 h 3.76 a 1.16,1.16 0 0 1 0.88,0.38 1.18,1.18 0 0 1 0.36,0.88 v 10 a 1.22,1.22 0 0 1 -1.24,1.24 h -3.76 a 1.22,1.22 0 0 1 -1.24,-1.24 v -10 a 1.18,1.18 0 0 1 0.36,-0.88 1.16,1.16 0 0 1 0.88,-0.38 z"
     id="path1085"
     style="fill:#ffffff;stroke-width:1" />
  <path
     d="m 155,125.56 h 3.86 a 1.16,1.16 0 0 1 0.88,0.38 1.18,1.18 0 0 1 0.36,0.88 v 10 a 1.22,1.22 0 0 1 -1.24,1.24 h -3.76 a 1.22,1.22 0 0 1 -1.24,-1.24 v -10 a 1.18,1.18 0 0 1 0.36,-0.88 1.16,1.16 0 0 1 0.78,-0.38 z"
     id="path1083"
     style="fill:#ffffff;stroke-width:1" />
  <path
     d="m 126.26,125.56 h 3.76 a 1.16,1.16 0 0 1 0.88,0.38 1.18,1.18 0 0 1 0.36,0.88 v 10 a 1.22,1.22 0 0 1 -1.24,1.24 h -3.76 a 1.22,1.22 0 0 1 -1.24,-1.24 v -10 a 1.18,1.18 0 0 1 0.36,-0.88 1.16,1.16 0 0 1 0.88,-0.38 z"
     id="path1081"
     style="fill:#ffffff;stroke-width:1" />
  <path
     d="m 97.52,125.56 h 3.76 a 1.16,1.16 0 0 1 0.88,0.38 1.18,1.18 0 0 1 0.36,0.88 v 10 a 1.22,1.22 0 0 1 -1.24,1.24 h -3.76 a 1.24,1.24 0 0 1 -0.88,-0.36 1.2,1.2 0 0 1 -0.36,-0.88 v -10 a 1.26,1.26 0 0 1 1.24,-1.26 z"
     id="path1079"
     style="fill:#ffffff;stroke-width:1" />
  <path
     d="m 212.48,98.08 h 3.76 a 1.22,1.22 0 0 1 1.24,1.24 v 10 a 1.2,1.2 0 0 1 -0.36,0.88 1.22,1.22 0 0 1 -0.88,0.38 h -3.76 a 1.22,1.22 0 0 1 -0.88,-0.38 1.2,1.2 0 0 1 -0.36,-0.88 v -10 a 1.22,1.22 0 0 1 1.24,-1.24 z"
     id="path1077"
     style="fill:#ffffff;stroke-width:1" />
  <path
     d="m 183.74,98.08 h 3.76 a 1.22,1.22 0 0 1 1.24,1.24 v 10 a 1.2,1.2 0 0 1 -0.36,0.88 1.22,1.22 0 0 1 -0.88,0.38 h -3.76 a 1.22,1.22 0 0 1 -0.88,-0.38 1.2,1.2 0 0 1 -0.36,-0.88 v -10 a 1.22,1.22 0 0 1 1.24,-1.24 z"
     id="path1075"
     style="fill:#ffffff;stroke-width:1" />
  <path
     d="m 155,98.08 h 3.86 a 1.22,1.22 0 0 1 1.24,1.24 v 10 a 1.2,1.2 0 0 1 -0.36,0.88 1.22,1.22 0 0 1 -0.88,0.38 h -3.76 a 1.22,1.22 0 0 1 -0.88,-0.38 1.2,1.2 0 0 1 -0.36,-0.88 v -10 a 1.22,1.22 0 0 1 1.24,-1.24 z"
     id="path1073"
     style="fill:#ffffff;stroke-width:1" />
  <path
     d="m 126.26,98.08 h 3.76 a 1.22,1.22 0 0 1 1.24,1.24 v 10 a 1.2,1.2 0 0 1 -0.36,0.88 1.22,1.22 0 0 1 -0.88,0.38 h -3.76 a 1.22,1.22 0 0 1 -0.88,-0.38 1.2,1.2 0 0 1 -0.36,-0.88 v -10 a 1.22,1.22 0 0 1 1.24,-1.24 z"
     id="path1071"
     style="fill:#ffffff;stroke-width:1" />
  <path
     d="m 97.52,98.08 h 3.76 a 1.22,1.22 0 0 1 1.24,1.24 v 10 a 1.2,1.2 0 0 1 -0.36,0.88 1.22,1.22 0 0 1 -0.88,0.38 h -3.76 a 1.26,1.26 0 0 1 -0.88,-0.38 1.2,1.2 0 0 1 -0.36,-0.88 v -10 a 1.2,1.2 0 0 1 0.36,-0.88 1.24,1.24 0 0 1 0.88,-0.36 z"
     id="path1069"
     style="fill:#ffffff;stroke-width:1" />
  <path
     d="m 212.48,70.58 h 3.76 a 1.16,1.16 0 0 1 0.88,0.38 1.2,1.2 0 0 1 0.36,0.88 v 10 a 1.22,1.22 0 0 1 -1.24,1.24 h -3.76 a 1.22,1.22 0 0 1 -1.24,-1.24 v -10 a 1.2,1.2 0 0 1 0.36,-0.88 1.16,1.16 0 0 1 0.88,-0.38 z"
     id="path1067"
     style="fill:#ffffff;stroke-width:1" />
  <path
     d="m 183.74,70.58 h 3.76 a 1.16,1.16 0 0 1 0.88,0.38 1.2,1.2 0 0 1 0.36,0.88 v 10 a 1.22,1.22 0 0 1 -1.24,1.24 h -3.76 a 1.22,1.22 0 0 1 -1.24,-1.24 v -10 a 1.2,1.2 0 0 1 0.36,-0.88 1.16,1.16 0 0 1 0.88,-0.38 z"
     id="path1065"
     style="fill:#ffffff;stroke-width:1" />
  <path
     d="m 155,70.58 h 3.86 a 1.16,1.16 0 0 1 0.88,0.38 1.2,1.2 0 0 1 0.36,0.88 v 10 a 1.22,1.22 0 0 1 -1.24,1.24 h -3.76 a 1.22,1.22 0 0 1 -1.24,-1.24 v -10 a 1.2,1.2 0 0 1 0.36,-0.88 1.16,1.16 0 0 1 0.78,-0.38 z"
     id="path1063"
     style="fill:#ffffff;stroke-width:1" />
  <path
     d="m 126.26,70.58 h 3.76 a 1.16,1.16 0 0 1 0.88,0.38 1.2,1.2 0 0 1 0.36,0.88 v 10 a 1.22,1.22 0 0 1 -1.24,1.24 h -3.76 a 1.22,1.22 0 0 1 -1.24,-1.24 v -10 a 1.2,1.2 0 0 1 0.36,-0.88 1.16,1.16 0 0 1 0.88,-0.38 z"
     id="path1061"
     style="fill:#ffffff;stroke-width:1" />
  <path
     d="m 97.52,70.58 h 3.76 a 1.16,1.16 0 0 1 0.88,0.38 1.2,1.2 0 0 1 0.36,0.88 v 10 a 1.22,1.22 0 0 1 -1.24,1.24 h -3.76 a 1.24,1.24 0 0 1 -0.88,-0.36 1.2,1.2 0 0 1 -0.36,-0.88 v -10 a 1.2,1.2 0 0 1 0.36,-0.88 1.18,1.18 0 0 1 0.88,-0.38 z"
     id="path987"
     style="fill:#ffffff;stroke-width:1" />
  <path
     d="M 168.56,55.74 H 144.02 A 8.88,8.88 0 0 1 144.14,38 h 24.42 a 8.88,8.88 0 1 1 0,17.74 m 0.12,-24.36 h -24.66 a 15.460323,15.460323 0 0 0 -0.2,30.92 h 24.74 a 15.460116,15.460116 0 0 0 0.12,-30.92"
     fill="#3adcfe"
     id="path989"
     style="stroke-width:0.5" />
  <path
     d="m 144.14,43.54 a 3.32,3.32 0 1 0 3.3,3.3 3.34,3.34 0 0 0 -3.3,-3.3 m 24.42,6.62 a 3.32,3.32 0 1 0 -3.3,-3.32 3.34,3.34 0 0 0 3.3,3.32"
     fill="#3adcfe"
     id="path991"
     style="stroke-width:0.5" />
  <path
     d="m 13.32,213.4 a 12,12 0 1 1 12,12 12,12 0 0 1 -12,-12 z m -2.94,-0.24 v 38.8 a 21.04,21.04 0 0 0 8,1.7 h 21.48 v -40.5 h 0.2 a 14.84,14.84 0 0 0 -29.68,0 z"
     fill="url(#a)"
     id="path993"
     style="fill:#ffb380;stroke-width:1" />
  <path
     d="m 87.1,224.96 a 12,12 0 1 1 12,-12 12,12 0 0 1 -12,12 z m -0.12,-26.74 c -8,0 -13.82,6.44 -14.44,14.44 v 41.08 H 101.4 V 212.66 A 14.44,14.44 0 0 0 86.98,198.22 Z"
     fill="url(#b)"
     id="path995"
     style="fill:#ffb380;stroke-width:1" />
  <path
     d="m 155.88,224.96 a 12,12 0 1 1 12,-12 12,12 0 0 1 -12,12 z m -0.24,-26.74 c -8,0 -13.82,6.44 -14.44,14.44 v 41.08 h 28.86 v -41.08 a 14.44,14.44 0 0 0 -14.42,-14.44 z"
     fill="url(#c)"
     id="path997"
     style="fill:#ffb380;stroke-width:1" />
  <path
     d="m 0.06,223.46 v 12 a 18.72,18.72 0 0 0 9,15.74 v -27.74 z"
     fill="url(#d)"
     id="path999"
     style="fill:#ffb380;stroke-width:1" />
  <path
     fill="url(#e)"
     d="m 41.74,222.84 h 6.24 v 31.24 h -6.24 z"
     id="path1001"
     style="fill:#ffb380;stroke-width:1" />
  <path
     fill="url(#f)"
     d="m 49.48,222.84 h 6.24 v 31.24 h -6.24 z"
     id="path1003"
     style="fill:#ffb380;stroke-width:1" />
  <path
     fill="url(#g)"
     d="m 57.18,222.84 h 6.24 v 31.24 h -6.24 z"
     id="path1005"
     style="fill:#ffb380;stroke-width:1" />
  <path
     fill="url(#h)"
     d="m 64.86,222.84 h 6.24 v 31.24 h -6.24 z"
     id="path1007"
     style="fill:#ffb380;stroke-width:1" />
  <path
     fill="url(#i)"
     d="m 102.72,222.84 h 6.24 v 31.24 h -6.24 z"
     id="path1009"
     style="fill:#ffb380;stroke-width:1" />
  <path
     fill="url(#j)"
     d="m 110.4,222.84 h 6.24 v 31.24 h -6.24 z"
     id="path1011"
     style="fill:#ffb380;stroke-width:1" />
  <path
     fill="url(#k)"
     d="m 118.08,222.84 h 6.24 v 31.24 h -6.24 z"
     id="path1013"
     style="fill:#ffb380;stroke-width:1" />
  <path
     fill="url(#l)"
     d="m 125.84,222.84 h 6.24 v 31.24 h -6.24 z"
     id="path1015"
     style="fill:#ffb380;stroke-width:1" />
  <path
     fill="url(#m)"
     d="m 133.52,222.84 h 6.24 v 31.24 h -6.24 z"
     id="path1017"
     style="fill:#ffb380;stroke-width:1" />
  <path
     fill="url(#n)"
     d="m 172,222.84 h 6.24 v 31.24 H 172 Z"
     id="path1019"
     style="fill:#ffb380;stroke-width:1" />
  <path
     fill="url(#o)"
     d="m 179.68,222.84 h 6.24 v 31.24 h -6.24 z"
     id="path1021"
     style="fill:#ffb380;stroke-width:1" />
  <path
     fill="url(#p)"
     d="m 187.36,222.84 h 6.24 v 31.24 h -6.24 z"
     id="path1023"
     style="fill:#ffb380;stroke-width:1" />
  <path
     fill="url(#q)"
     d="m 195.06,222.84 h 6.24 v 31.24 h -6.24 z"
     id="path1025"
     style="fill:#ffb380;stroke-width:1" />
  <path
     fill="url(#r)"
     d="m 202.8,222.84 h 6.24 v 31.24 h -6.24 z"
     id="path1027"
     style="fill:#ffb380;stroke-width:1" />
  <path
     fill="url(#s)"
     d="m 240.66,222.84 h 6.24 v 31.24 h -6.24 z"
     id="path1029"
     style="fill:#ffb380;stroke-width:1" />
  <path
     fill="url(#t)"
     d="m 248.34,222.84 h 6.24 v 31.24 h -6.24 z"
     id="path1031"
     style="fill:#ffb380;stroke-width:1" />
  <path
     fill="url(#u)"
     d="m 256.02,222.84 h 6.24 v 31.24 h -6.24 z"
     id="path1033"
     style="fill:#ffb380;stroke-width:1" />
  <path
     fill="url(#v)"
     d="m 263.72,222.84 h 6.24 v 31.24 h -6.24 z"
     id="path1035"
     style="fill:#ffb380;stroke-width:1" />
  <path
     d="m 302.2,251.14 a 18.7,18.7 0 0 0 9,-15.68 v -12 h -9 z"
     fill="url(#w)"
     id="path1037"
     style="fill:#ffb380;stroke-width:1" />
  <path
     d="m 224.98,224.96 a 12,12 0 1 1 12,-12 12,12 0 0 1 -12,12 z m 0,-26.74 c -8,0 -13.82,6.44 -14.44,14.44 v 41.08 h 28.86 v -41.08 a 14.42,14.42 0 0 0 -14.54,-14.44 z"
     fill="url(#x)"
     id="path1039"
     style="fill:#ffb380;stroke-width:1" />
  <path
     d="m 286.08,225.46 a 12,12 0 1 1 12,-12 12,12 0 0 1 -12,12 z m 0.12,-27.04 a 14.76,14.76 0 0 0 -14.74,14.74 v 40.58 h 21.62 a 20.72,20.72 0 0 0 7.86,-1.68 v -38.84 a 14.74,14.74 0 0 0 -14.74,-14.8 z"
     fill="url(#y)"
     id="path1041"
     style="fill:#ffb380;stroke-width:1" />
  <path
     d="m 18.74,110.2 h 30.12 a 2.56,2.56 0 0 1 0.96,0.18 2.82,2.82 0 0 1 0.8,0.54 2.84,2.84 0 0 1 0.56,0.82 2.56,2.56 0 0 1 0.18,0.96 v 30 a 2.56,2.56 0 0 1 -0.18,0.96 2.6,2.6 0 0 1 -0.56,0.82 2.46,2.46 0 0 1 -0.8,0.54 2.56,2.56 0 0 1 -0.96,0.18 H 18.74 a 2.48,2.48 0 0 1 -1.76,-0.72 2.26,2.26 0 0 1 -0.54,-0.82 2.56,2.56 0 0 1 -0.18,-0.96 v -30 a 2.56,2.56 0 0 1 0.18,-0.96 2.44,2.44 0 0 1 0.54,-0.82 2.92,2.92 0 0 1 0.82,-0.54 2.54,2.54 0 0 1 0.94,-0.18 z"
     fill="#979797"
     id="path1043"
     style="stroke-width:0.5" />
  <path
     d="m 43.62,127.12 a 9.82,9.82 0 1 1 -9.82,-9.8 9.8,9.8 0 0 1 9.82,9.8"
     fill="#333333"
     id="path1045"
     style="stroke-width:0.5" />
  <path
     d="m 263.78,110.2 h 30 a 2.56,2.56 0 0 1 0.96,0.18 2.44,2.44 0 0 1 1.36,1.36 2.56,2.56 0 0 1 0.18,0.96 v 30 a 2.56,2.56 0 0 1 -0.18,0.96 2.92,2.92 0 0 1 -0.54,0.82 2.78,2.78 0 0 1 -0.82,0.54 2.56,2.56 0 0 1 -0.96,0.18 h -30 a 2.56,2.56 0 0 1 -0.96,-0.18 2.78,2.78 0 0 1 -0.82,-0.54 2.92,2.92 0 0 1 -0.54,-0.82 2.56,2.56 0 0 1 -0.18,-0.96 v -30 a 2.56,2.56 0 0 1 0.18,-0.96 2.44,2.44 0 0 1 1.36,-1.36 2.56,2.56 0 0 1 0.96,-0.18 z"
     fill="#979797"
     id="path1047"
     style="stroke-width:0.5" />
  <path
     d="m 288.64,127.12 a 9.82,9.82 0 1 1 -9.8,-9.8 9.8,9.8 0 0 1 9.8,9.8 M 27.12,235.14 a 1.34,1.34 0 0 0 -1.38,-1.44 1.36,1.36 0 0 0 -1.3,1.44 v 2.94 a 1.34,1.34 0 0 0 1.3,1.44 1.4,1.4 0 0 0 1.38,-1.44 z m -4.74,0 a 3.18,3.18 0 0 1 3.42,-3.18 3.26,3.26 0 0 1 3.44,3.18 v 2.94 a 3.2,3.2 0 0 1 -3.44,3.18 3.24,3.24 0 0 1 -3.42,-3.18 z m 62.78,-1.4 c 1.74,0 2.12,-0.5 2.12,-1.56 h 1.82 v 8.94 h -2.12 v -6 H 85.1 v -1.38 z m 70.22,2.72 c 1.06,-0.62 1.88,-1.06 1.88,-2 a 0.92,0.92 0 0 0 -1,-1 c -0.62,0 -1.12,0.38 -1.12,1.32 h -2 a 2.86,2.86 0 0 1 3.2,-2.88 2.7,2.7 0 0 1 3.06,2.68 c 0,1.5 -1.44,2.44 -2.38,2.94 -1.24,0.82 -1.56,1.12 -1.56,1.82 h 3.82 v 1.68 h -6.42 a 4.56,4.56 0 0 1 2.52,-4.56 z m 64.66,1.62 a 1.36,1.36 0 0 0 1.38,1.56 1.2214745,1.2214745 0 1 0 -0.12,-2.44 h -0.82 v -1.62 h 0.82 c 0.92,0 1.18,-0.44 1.18,-1.12 a 0.92,0.92 0 0 0 -1,-1 c -0.88,0 -1.12,0.5 -1.12,1.32 h -2 a 2.82,2.82 0 0 1 3.18,-2.88 c 1.62,0 3.12,0.8 3.12,2.5 a 2.12,2.12 0 0 1 -1.3,2 2.16,2.16 0 0 1 1.42,2.18 2.9,2.9 0 0 1 -3.24,2.68 3.08,3.08 0 0 1 -3.44,-3.18 z m 10.24,3 h -1.92 l -3.2,-8.94 h 2.2 l 1.92,6.32 1.94,-6.32 h 2.26 z m 47.42,-4.74 h 4.62 v 1.56 h -0.92 a 4,4 0 0 1 -4.44,3.44 4.5,4.5 0 0 1 -4.68,-4.7 4.54,4.54 0 0 1 4.68,-4.68 3.76,3.76 0 0 1 4.12,3.12 h -2.22 a 2,2 0 0 0 -2,-1.38 2.96,2.96 0 0 0 0.18,5.88 2,2 0 0 0 2.12,-1.68 h -1.56 z m 10.62,1.62 v -5.82 h 2.06 v 8.94 h -2.18 l -3.24,-5.74 v 5.74 h -2.06 v -8.94 h 2.18 z m 5.88,-4.06 v 5.36 h 1.12 a 2.56,2.56 0 0 0 2.62,-2.68 2.6,2.6 0 0 0 -2.62,-2.68 z m 1.18,-1.76 a 4.5,4.5 0 1 1 0,9 h -3.3 v -8.94 h 3.3 z"
     fill="#333333"
     id="path1049"
     style="stroke-width:0.5" />
  <path
     d="M 291.26,0 H 20 A 20,20 0 0 0 0,20 v 213.74 a 20,20 0 0 0 20,20 h 271.26 a 20,20 0 0 0 20,-20 V 19.92 A 20,20 0 0 0 291.26,0 Z M 9,129.12 a 3,3 0 1 1 3,-3 2.92,2.92 0 0 1 -3,3 z m 16.4,96.34 a 12,12 0 1 1 12,-12 12,12 0 0 1 -12,12 z m 61.5,0 a 12,12 0 1 1 12,-12 12,12 0 0 1 -12.04,12 z m 68.98,0 a 12,12 0 1 1 12,-12 12,12 0 0 1 -12,12 z m 69.28,0 a 12,12 0 1 1 12,-12 12,12 0 0 1 -12,12 z m 60.92,0 a 12,12 0 1 1 12,-12 12,12 0 0 1 -12,12 z m 17.74,-96.34 a 3,3 0 0 1 -3,-3 c 0,-1.7 0.12,-3 3,-3 a 3,3 0 0 1 0,6 z"
     fill="none"
     id="path1051"
     style="stroke-width:0.5" />
  <g
     aria-label="A"
     id="text1235"
     style="font-size:12px;line-height:1.25;font-family:'Dancing Script';-inkscape-font-specification:'Dancing Script'">
    <path
       d="m 24.357422,169.875 3.298828,-8.58984 h 1.224609 l 3.515625,8.58984 h -1.294922 l -1.001953,-2.60156 h -3.591797 l -0.943359,2.60156 z m 2.478515,-3.52734 h 2.91211 l -0.896485,-2.37891 q -0.410156,-1.08398 -0.609375,-1.78125 -0.164062,0.82617 -0.46289,1.64062 z"
       style="font-style:normal;font-variant:normal;font-weight:normal;font-stretch:normal;font-size:12px;font-family:Arial;-inkscape-font-specification:Arial"
       id="path1244" />
  </g>
  <g
     aria-label="B"
     id="text1239"
     style="font-size:12px;line-height:1.25;font-family:'Dancing Script';-inkscape-font-specification:'Dancing Script';stroke-width:1">
    <path
       d="m 280.62415,93.3125 v -8.589844 h 3.22265 q 0.98438,0 1.57617,0.263672 0.59766,0.257813 0.93164,0.802734 0.33985,0.539063 0.33985,1.13086 0,0.550781 -0.29883,1.037109 -0.29883,0.486328 -0.90234,0.785156 0.77929,0.228516 1.19531,0.779297 0.42187,0.550782 0.42187,1.300782 0,0.603515 -0.25781,1.125 -0.25195,0.515625 -0.62695,0.796875 -0.375,0.28125 -0.94336,0.427734 -0.5625,0.140625 -1.38281,0.140625 z m 1.13671,-4.980469 h 1.85743 q 0.75586,0 1.08398,-0.09961 0.43359,-0.128906 0.65039,-0.427735 0.22266,-0.298828 0.22266,-0.75 0,-0.427734 -0.20508,-0.75 -0.20508,-0.328125 -0.58594,-0.445312 -0.38086,-0.123047 -1.30664,-0.123047 h -1.7168 z m 0,3.966797 h 2.13868 q 0.55078,0 0.77343,-0.04102 0.39258,-0.07031 0.65625,-0.234375 0.26368,-0.164062 0.4336,-0.474609 0.16992,-0.316406 0.16992,-0.726562 0,-0.480469 -0.24609,-0.832032 -0.2461,-0.357422 -0.68555,-0.498047 -0.4336,-0.146484 -1.25391,-0.146484 h -1.98633 z"
       style="font-style:normal;font-variant:normal;font-weight:normal;font-stretch:normal;font-size:12px;font-family:Arial;-inkscape-font-specification:Arial;stroke-width:1"
       id="path1241" />
  </g>
</svg>
